<?xml version="1.0" encoding="utf-8"?>
<!-- Generator: Adobe Illustrator 22.1.0, SVG Export Plug-In . SVG Version: 6.00 Build 0)  -->
<svg version="1.1" id="Layer_1" xmlns="http://www.w3.org/2000/svg" xmlns:xlink="http://www.w3.org/1999/xlink" x="0px" y="0px"
	 viewBox="0 0 957.5 946.5" style="enable-background:new 0 0 957.5 946.5;" xml:space="preserve">
<style type="text/css">
	.st0{fill:#2296F3;}
</style>
<title>d</title>
<g id="Layer_2_1_">
	<g id="Layer_1-2">
		<path class="st0" d="M886.5,667h-499c-23.9,0-44.7-16.5-50.1-39.8L214.7,103H51.5C23.1,103,0,79.9,0,51.5S23.1,0,51.5,0h204
			c23.9,0,44.7,16.5,50.1,39.8L428.3,564h458.2c28.4,0,51.5,23.1,51.5,51.5C938,643.9,914.9,667,886.5,667z"/>
		<path class="st0" d="M633.5,946.5C563.1,946.5,506,889.4,506,819s57.1-127.5,127.5-127.5S761,748.6,761,819
			C760.9,889.4,703.9,946.4,633.5,946.5z M633.5,745.5c-40.6,0-73.5,32.9-73.5,73.5s32.9,73.5,73.5,73.5S707,859.6,707,819l0,0
			C707,778.4,674.1,745.5,633.5,745.5z"/>
		<path class="st0" d="M930.5,182h-507c-14.9,0-27-12.1-27-27s12.1-27,27-27h507c14.9,0,27,12.1,27,27S945.4,182,930.5,182z"/>
		<path class="st0" d="M910.5,313h-467c-14.9,0-27-12.1-27-27s12.1-27,27-27h467c14.9,0,27,12.1,27,27S925.4,313,910.5,313z"/>
		<path class="st0" d="M895.5,443h-437c-14.9,0-27-12.1-27-27s12.1-27,27-27h437c14.9,0,27,12.1,27,27S910.4,443,895.5,443z"/>
	</g>
</g>
</svg>
